<svg xmlns="http://www.w3.org/2000/svg" viewBox="-1 52 394.8 156" width="394.8" height="156" role="img" aria-label="DBDA">
  <defs>
    <linearGradient id="crim" x1="0" y1="0" x2="0.04" y2="1">
      <stop offset="0" stop-color="#ff6a5a"/>
      <stop offset="0.55" stop-color="#d61f1f"/>
      <stop offset="1" stop-color="#8d1010"/>
    </linearGradient>
  </defs>
  <path d="M9.40 200Q8.40 200 7.70 199.30Q7 198.60 7 197.60L7 62.40Q7 61.40 7.70 60.70Q8.40 60 9.40 60L47.60 60Q66.80 60 78.40 70.80Q90 81.60 90 99.40L90 160.60Q90 178.40 78.40 189.20Q66.80 200 47.60 200L9.40 200M40.20 170.60Q40.20 171.60 41.20 171.60L46.80 171.40Q51 171.20 53.80 167.70Q56.60 164.20 56.80 158.40L56.80 101.60Q56.80 95.60 54 92Q51.20 88.40 46.60 88.40L41.20 88.40Q40.20 88.40 40.20 89.40L40.20 170.60M187.40 161Q187.40 179.80 175.60 189.90Q163.80 200 145.60 200L105.20 200Q104.20 200 103.50 199.30Q102.80 198.60 102.80 197.60L102.80 62.40Q102.80 61.40 103.50 60.70Q104.20 60 105.20 60L140.40 60Q161.20 60 173.10 69.70Q185 79.40 185 98.80Q185 118 172.40 127Q171.40 127.60 172.20 128.20Q187.40 139.40 187.40 161M137 88.40Q136 88.40 136 89.40L136 115Q136 116 137 116L140.80 116Q146.40 116 149.40 112.50Q152.40 109 152.40 102.40Q152.40 95.60 149.40 92Q146.40 88.40 140.80 88.40L137 88.40M143 171.40Q148.20 171.40 151.20 167.40Q154.20 163.40 154.20 156Q154.20 148.60 151.20 144.20Q148.20 139.80 143.20 139.80L137 139.80Q136 139.80 136 140.80L136 170.40Q136 171.40 137 171.40L143 171.40M200.40 200Q199.40 200 198.70 199.30Q198 198.60 198 197.60L198 62.40Q198 61.40 198.70 60.70Q199.40 60 200.40 60L238.60 60Q257.80 60 269.40 70.80Q281 81.60 281 99.40L281 160.60Q281 178.40 269.40 189.20Q257.80 200 238.60 200L200.40 200M231.20 170.60Q231.20 171.60 232.20 171.60L237.80 171.40Q242 171.20 244.80 167.70Q247.60 164.20 247.80 158.40L247.80 101.60Q247.80 95.60 245 92Q242.20 88.40 237.60 88.40L232.20 88.40Q231.20 88.40 231.20 89.40" fill="#ffffff"/>
  <path d="M354.60 200Q352.20 200 352 197.80L349.40 180.40Q349.40 179.40 348.20 179.40L326.60 179.40Q325.40 179.40 325.40 180.40L323 197.80Q322.80 200 320.40 200L292 200Q289.40 200 290 197.40L319 62.20Q319.40 60 321.60 60L354.20 60Q356.40 60 356.80 62.20L385.60 197.40L385.80 198.20Q385.80 200 383.60 200L354.60 200M329.80 152.80Q329.80 153.80 330.60 153.80L344 153.80Q344.80 153.80 344.80 152.80L337.60 107.20Q337.40 106.40 337 106.40Q336.60 106.40 336.40 107.20" fill="url(#crim)"/>
</svg>
